<?xml version="1.0" encoding="utf-8"?>
<!-- Generator: Adobe Illustrator 17.0.0, SVG Export Plug-In . SVG Version: 6.00 Build 0)  -->
<!DOCTYPE svg PUBLIC "-//W3C//DTD SVG 1.1//EN" "http://www.w3.org/Graphics/SVG/1.1/DTD/svg11.dtd">
<svg version="1.1" id="Layer_1" xmlns="http://www.w3.org/2000/svg" xmlns:xlink="http://www.w3.org/1999/xlink" x="0px" y="-20px"
	 width="150px" height="150px" viewBox="0 0 595.28 841.89" enable-background="new 0 0 595.28 841.89" xml:space="preserve">
<path d="M297.827,257.38c-90.022,0-163,72.978-163,163s72.978,163,163,163s163-72.978,163-163S387.85,257.38,297.827,257.38z
	 M260.286,323.563h75.083c0,0,0.602,0.16,0.602,0.963s-1.083,3.21-1.766,4.575c-0.682,1.364-1.806,3.531-1.806,5.136
	c0,1.003,0,2.327,0,2.327h-69.144c0,0,0-1.324,0-2.327c0-1.605-1.124-3.772-1.806-5.136c-0.682-1.364-1.766-3.772-1.766-4.575
	S260.286,323.563,260.286,323.563z M244.36,347.298h106.935c0,0,0.857,0.229,0.857,1.372s-1.543,4.572-2.515,6.515
	s-2.572,5.029-2.572,7.315c0,1.429,0,3.315,0,3.315h-98.477c0,0,0-1.886,0-3.315c0-2.286-1.6-5.372-2.572-7.315
	s-2.515-5.372-2.515-6.515S244.36,347.298,244.36,347.298z M226.898,378.25h141.858c0,0,1.137,0.303,1.137,1.82
	s-2.047,6.065-3.336,8.643c-1.289,2.578-3.412,6.672-3.412,9.704c0,1.895,0,4.397,0,4.397H232.508c0,0,0-2.502,0-4.397
	c0-3.033-2.123-7.127-3.412-9.704c-1.289-2.578-3.336-7.127-3.336-8.643S226.898,378.25,226.898,378.25z M206.597,419.97h182.461
	c0,0,1.463,0.39,1.463,2.34c0,1.95-2.633,7.801-4.291,11.117c-1.658,3.315-4.388,8.581-4.388,12.482c0,2.438,0,5.656,0,5.656
	H213.813c0,0,0-3.218,0-5.656c0-3.901-2.73-9.166-4.388-12.482c-1.658-3.316-4.291-9.166-4.291-11.117
	C205.134,420.36,206.597,419.97,206.597,419.97z M411.147,493.946c-2.125,4.25-5.625,11-5.625,16c0,3.125,0,7.25,0,7.25h-215.39
	c0,0,0-4.125,0-7.25c0-5-3.5-11.75-5.625-16s-5.5-11.75-5.5-14.25s1.875-3,1.875-3h233.89c0,0,1.875,0.5,1.875,3
	S413.272,489.696,411.147,493.946z"/>
</svg>
